<svg xmlns="http://www.w3.org/2000/svg" version="1.1" xmlns:xlink="http://www.w3.org/1999/xlink" xmlns:svgjs="http://svgjs.com/svgjs" width="1000" height="1000"><rect width="1000" height="1000" rx="100" ry="100" fill="#555555"></rect><g transform="matrix(1.0610079575596818,0,0,1.0610079575596818,100.01099962731251,275.5997772621539)"><svg xmlns="http://www.w3.org/2000/svg" version="1.1" xmlns:xlink="http://www.w3.org/1999/xlink" xmlns:svgjs="http://svgjs.com/svgjs" width="754" height="423"><svg width="754" height="423" viewBox="0 0 754 423" fill="none" xmlns="http://www.w3.org/2000/svg">
<g clip-path="url(#clip0_1_59)">
<path d="M64.5199 349.32V338.4H3.41994V353.3H43.2099L0.439941 410.58V421.63H65.7899V406.72H21.9699L64.5199 349.32Z" fill="white"></path>
<path d="M80.34 421.63H133.88V406.72H95.71V386.43H127.58V371.53H95.71V353.3H133.88V338.4H80.34V421.63Z" fill="white"></path>
<path d="M150.73 421.63H204.27V406.72H166.1V386.43H197.97V371.53H166.1V353.3H204.27V338.4H150.73V421.63Z" fill="white"></path>
<path d="M275.11 338.4L256.99 388.08C255.76 391.3 254.71 394.19 253.87 396.67L253 399.27C252.71 398.47 252.41 397.65 252.09 396.8C251.18 394.35 250.09 391.44 248.76 388.06L229.25 338.4H211.93L245.22 421.63H259.22L292.75 338.4H275.11Z" fill="white"></path>
<path d="M294.95 402.71C293.668 402.668 292.392 402.906 291.21 403.407C290.029 403.907 288.971 404.659 288.11 405.61C286.373 407.594 285.457 410.165 285.55 412.8C285.395 415.481 286.276 418.119 288.01 420.17C288.905 421.093 289.988 421.813 291.185 422.282C292.382 422.751 293.666 422.959 294.95 422.89C296.232 422.932 297.508 422.694 298.689 422.193C299.87 421.693 300.928 420.941 301.79 419.99C303.527 418.006 304.443 415.435 304.35 412.8C304.504 410.119 303.624 407.481 301.89 405.43C300.995 404.507 299.912 403.787 298.715 403.318C297.518 402.849 296.234 402.641 294.95 402.71Z" fill="white"></path>
<path d="M367.21 381.05C362.38 377.05 355.57 374.05 346.95 372.25C341.18 371.08 337.1 369.54 334.81 367.68C333.782 366.876 332.958 365.839 332.407 364.656C331.856 363.472 331.593 362.175 331.64 360.87C331.615 359.539 331.923 358.222 332.536 357.04C333.149 355.858 334.048 354.847 335.15 354.1C337.63 352.28 340.96 351.35 345.05 351.35C348.516 351.316 351.92 352.274 354.86 354.11C358.029 356.176 360.672 358.953 362.58 362.22L363.58 363.82L374.44 353.09L373.86 352.09C368.09 342.24 358.52 337.25 345.4 337.25C340.344 337.179 335.335 338.224 330.73 340.31C326.567 342.182 322.955 345.092 320.24 348.76C317.593 352.367 316.189 356.736 316.24 361.21C316.24 375.03 324.9 383.74 341.99 387.09C348.15 388.27 352.69 389.93 355.47 392.03C356.681 392.86 357.669 393.976 358.345 395.279C359.022 396.582 359.367 398.032 359.35 399.5C359.35 402.12 358.09 404.23 355.49 405.94C352.419 407.837 348.858 408.787 345.25 408.67C341.225 408.78 337.248 407.784 333.75 405.79C330.5 403.79 327.03 400.24 323.43 395.09L322.33 393.53L311.84 405.59L312.49 406.59C319.94 417.36 330.49 422.82 343.99 422.82C353.33 422.82 360.85 420.43 366.34 415.7C371.83 410.97 374.71 404.4 374.71 396.34C374.74 390.35 372.21 385.22 367.21 381.05Z" fill="white"></path>
<path d="M382.07 353.3H404.55V421.63H419.91V353.3H443.06V338.4H382.07V353.3Z" fill="white"></path>
<path d="M507.03 388.27C507.083 391.684 506.205 395.048 504.49 398C502.817 400.833 500.453 403.197 497.62 404.87C494.702 406.57 491.377 407.448 488 407.41C484.777 407.431 481.613 406.555 478.86 404.88C476.071 403.18 473.745 400.816 472.09 398C470.374 395.048 469.496 391.684 469.55 388.27V338.27H454.18V389.27C454.089 395.228 455.606 401.101 458.57 406.27C461.448 411.23 465.629 415.307 470.66 418.06C476.015 420.852 481.965 422.31 488.005 422.31C494.044 422.31 499.995 420.852 505.35 418.06C510.379 415.305 514.56 411.228 517.44 406.27C520.404 401.101 521.921 395.228 521.83 389.27V338.27H507.03V388.27Z" fill="white"></path>
<path d="M593.72 343.65C587.44 340.051 580.296 338.235 573.06 338.4H540.16V421.63H573.06C581.06 421.63 588.06 419.86 593.83 416.37C599.673 412.892 604.396 407.811 607.44 401.73C610.579 394.928 612.2 387.525 612.19 380.033C612.18 372.542 610.538 365.143 607.38 358.35C604.312 352.254 599.575 347.156 593.72 343.65ZM555.52 353.3H572.52C580.17 353.3 585.96 355.61 590.21 360.37C594.46 365.13 596.59 371.72 596.59 380.01C596.59 388.3 594.46 395.01 590.27 399.71C586.08 404.41 580.14 406.71 572.52 406.71H555.52V353.3Z" fill="white"></path>
<path d="M621.21 352.84H634.16V407.18H621.21V421.63H662.48V407.18H649.53V352.84H662.48V338.4H621.21V352.84Z" fill="white"></path>
<path d="M750.14 363.14C748.198 358.085 745.287 353.458 741.57 349.52C737.894 345.667 733.47 342.605 728.57 340.52C718.169 336.226 706.491 336.226 696.09 340.52C691.197 342.618 686.776 345.678 683.09 349.52C679.391 353.412 676.493 357.992 674.56 363C670.528 373.975 670.528 386.025 674.56 397C676.493 402.042 679.406 406.65 683.13 410.56C686.814 414.403 691.236 417.464 696.13 419.56C706.534 423.84 718.206 423.84 728.61 419.56C733.513 417.453 737.936 414.371 741.61 410.5C745.329 406.567 748.24 401.943 750.18 396.89C754.206 386 754.206 374.03 750.18 363.14H750.14ZM712.35 407.75C707.766 407.833 703.255 406.601 699.35 404.2C695.549 401.792 692.465 398.408 690.42 394.4C688.268 389.91 687.15 384.994 687.15 380.015C687.15 375.036 688.268 370.12 690.42 365.63C692.462 361.617 695.546 358.229 699.35 355.82C703.286 353.491 707.776 352.262 712.35 352.262C716.924 352.262 721.413 353.491 725.35 355.82C729.193 358.22 732.306 361.626 734.35 365.67C736.502 370.142 737.619 375.042 737.619 380.005C737.619 384.968 736.502 389.868 734.35 394.34C732.3 398.38 729.189 401.785 725.35 404.19C721.442 406.586 716.933 407.821 712.35 407.75Z" fill="white"></path>
<path d="M400.89 107.58L393.44 89L348.21 95.77L360.6 125L400.88 107.56L400.89 107.58ZM382.04 111.32C380.315 111.322 378.628 110.812 377.193 109.855C375.757 108.898 374.638 107.537 373.977 105.944C373.315 104.351 373.141 102.597 373.476 100.905C373.812 99.2128 374.641 97.6581 375.86 96.4376C377.08 95.2171 378.633 94.3856 380.325 94.0483C382.017 93.711 383.771 93.8831 385.365 94.5428C386.959 95.2025 388.321 96.3202 389.28 97.7544C390.238 99.1886 390.75 100.875 390.75 102.6C390.751 103.745 390.527 104.878 390.09 105.936C389.653 106.994 389.011 107.956 388.202 108.765C387.393 109.575 386.433 110.218 385.375 110.656C384.318 111.094 383.185 111.32 382.04 111.32Z" fill="white"></path>
<path d="M396.22 88.0699L403.56 106.42L425.85 96.7699L415.02 77.5699L414.68 77.4399L396.22 88.0699Z" fill="white"></path>
<path d="M486.58 110.55L428.28 98.89L362.07 127.55L395.87 174.58L407.31 185.12L482.84 170.27L487.41 160.65L482.79 155.89L475.42 162.13L469.55 156.45L462.21 162.84L455.42 157.18L448.25 163.96L438.64 156.85L429.18 163.8L393.19 127.13L426.47 138.67L433.37 128.33L442.12 138.42L447.98 129.92L456.08 138.8L464.47 129.04L471.2 139.88L477.33 131.26L483.9 142.76L507.45 133.1L512.59 109.12L486.58 110.55Z" fill="white"></path>
<path d="M338.87 218.63L338.66 218.71L318.69 225.52L335.27 233.81L346.23 281.65L366 261.71L363.43 200.5L338.87 218.63Z" fill="white"></path>
<path d="M394.68 177.43L366.26 198.41L368.8 258.89L423.36 203.87L394.68 177.43Z" fill="white"></path>
<path d="M345.55 96.95L245.5 173.87L261.45 171.17L357.94 126.21L345.55 96.95Z" fill="white"></path>
<path d="M243.5 171.73L343.65 94.75L307.18 70.64L279.73 92.16L243.5 171.73Z" fill="white"></path>
<path d="M290.04 193.36L290 193.27L372.16 146.59V146.58L359.36 128.76L262.96 173.67L256.56 212.63L290.03 193.36H290.04Z" fill="white"></path>
<path d="M310.44 69.3L346.51 93.13L393.91 86L411.29 76L372.44 60C351.8 63.06 326.31 66.89 310.44 69.3Z" fill="white"></path>
<path d="M373.88 148.96L297.15 192.56L288.85 232.6L337.5 216.02L392.75 175.24L373.88 148.96Z" fill="white"></path>
<path d="M324.83 64.17L330.21 46.23L362.37 21.76L372.79 0L317.79 39.34L309.04 66.56L324.83 64.17Z" fill="white"></path>
<path d="M363.44 58.37L370.61 57.3L374.55 3.09998L364.26 24.53L363.26 58.4L363.44 58.37Z" fill="white"></path>
</g>
<defs>
<clipPath id="clip0_1_59">
<rect width="752.72" height="422.89" fill="white" transform="translate(0.439941)"></rect>
</clipPath>
</defs>
</svg></svg></g></svg>