<svg width="48" height="48" viewBox="0 0 48 48" fill="none" xmlns="http://www.w3.org/2000/svg">
<rect x="0.5" y="0.5" width="47" height="47" rx="23.5" stroke="white"/>
<path d="M37.3247 35.3251C35.7497 35.2876 34.2122 35.2876 32.6372 35.3251C32.2997 35.3251 32.2247 35.2501 32.2247 34.9126C32.2247 32.1376 32.2247 29.3251 32.2247 26.5501C32.2247 25.9126 32.1872 25.2751 31.9997 24.6751C31.4372 22.7251 29.1872 22.0126 27.5747 23.3251C26.7122 24.0001 26.3747 24.9376 26.3747 26.0626C26.3747 28.6876 26.3747 31.3126 26.3747 33.9376C26.3747 34.2751 26.3372 34.6126 26.3747 34.9876C26.4122 35.2876 26.2622 35.3626 25.9997 35.3251C24.3872 35.3251 22.8122 35.3251 21.1997 35.3251C20.8997 35.3251 20.8247 35.2501 20.8247 34.9501C20.8622 32.5876 20.8622 30.2251 20.8622 27.8251C20.8622 24.9001 20.8622 21.9751 20.8247 19.0876C20.8247 18.7501 20.8997 18.6751 21.1997 18.6751C22.8122 18.6751 24.3872 18.6751 25.9997 18.6751C26.2997 18.6751 26.3747 18.7501 26.3747 19.0501C26.3747 19.6501 26.3747 20.2501 26.3747 20.9626C26.4872 20.8501 26.5247 20.8126 26.5622 20.7751C28.0247 18.6376 30.0872 18.0376 32.5247 18.4126C35.3372 18.8626 37.1372 20.8126 37.5872 23.8126C37.6997 24.5251 37.7372 25.2376 37.7372 25.9501C37.7372 28.9501 37.7372 31.9126 37.7372 34.9126C37.7372 35.2126 37.6622 35.3251 37.3247 35.3251Z" fill="white"/>
<path d="M17.825 27C17.825 29.625 17.825 32.25 17.825 34.875C17.825 35.2125 17.75 35.325 17.4125 35.325C15.8375 35.2875 14.2625 35.325 12.6875 35.325C12.3875 35.325 12.3125 35.25 12.3125 34.95C12.3125 29.6625 12.3125 24.3375 12.3125 19.05C12.3125 18.7875 12.3875 18.675 12.6875 18.675C14.3 18.675 15.9125 18.675 17.525 18.675C17.8625 18.675 17.9 18.7875 17.9 19.0875C17.825 21.7125 17.825 24.3375 17.825 27Z" fill="white"/>
<path d="M18.0874 14.325C17.7124 15.825 16.1749 16.6875 14.4124 16.3875C12.5374 16.0875 11.4874 14.25 12.1624 12.45C12.6124 11.325 13.6999 10.65 15.0874 10.6875C17.1874 10.65 18.5749 12.3375 18.0874 14.325Z" fill="white"/>
</svg>
