<svg width="107" height="84" viewbox="0 0 107 84" fill="none" xmlns="http://www.w3.org/2000/svg">
<circle cx="52.6076" cy="51.3725" r="31.4914" stroke="white"/>
<path d="M59.7456 51.764L46.2527 59.8597V43.6682L59.7456 51.764Z" fill="white"/>
<path d="M0 49.1804L0.209571 47.8693L1.80842 48.1249C1.2895 47.7468 0.921703 47.2781 0.705034 46.7188C0.479411 46.1471 0.421122 45.5201 0.530167 44.8379C0.700551 43.772 1.1886 42.9755 1.99433 42.4485C2.78939 41.9197 3.87443 41.7652 5.24944 41.985L5.56921 42.0361C6.29403 42.1519 6.91461 42.3386 7.43095 42.596C7.93664 42.8518 8.34598 43.1632 8.65898 43.5302C8.96132 43.8955 9.16816 44.3112 9.2795 44.7772C9.39255 45.2325 9.40733 45.7213 9.32385 46.2436C9.20798 46.9684 8.95098 47.5504 8.55283 47.9896C8.15639 48.4182 7.69875 48.7167 7.17991 48.8852L11.8965 49.6391L11.6716 51.0461L0 49.1804ZM8.02563 46.364C8.08015 46.0229 8.06731 45.6929 7.98711 45.374C7.89625 45.0534 7.73995 44.7661 7.51821 44.512C7.29818 44.2473 7.00567 44.0256 6.64069 43.8471C6.27741 43.6578 5.84528 43.5231 5.34431 43.4431L5.02454 43.392C4.5662 43.3187 4.14561 43.317 3.76275 43.387C3.38161 43.4463 3.05056 43.5683 2.76962 43.753C2.47973 43.9253 2.24698 44.1504 2.07136 44.4284C1.89575 44.7064 1.78068 45.016 1.72616 45.3571C1.66482 45.7408 1.67255 46.1028 1.74934 46.443C1.81547 46.7815 1.94257 47.0805 2.13063 47.3402C2.30803 47.5981 2.53573 47.8148 2.81374 47.9905C3.09174 48.1661 3.40129 48.2812 3.74238 48.3357L5.02146 48.5401C5.40518 48.6015 5.76715 48.5937 6.10737 48.5169C6.44758 48.4402 6.7475 48.3077 7.00712 48.1197C7.26674 47.9316 7.48606 47.6879 7.66509 47.3886C7.84411 47.0893 7.96429 46.7477 8.02563 46.364Z" fill="white"/>
<path d="M14.0108 32.2754C13.6056 33.0745 13.1227 33.5497 12.5618 33.7011C12.001 33.8524 11.2873 33.7084 10.4208 33.2692L2.69459 29.3521L3.33889 28.0813L11.0651 31.9983C11.5658 32.2521 11.9491 32.3435 12.215 32.2726C12.4809 32.2017 12.7188 31.9592 12.9286 31.5452C12.9823 31.4393 13.0287 31.3479 13.0677 31.2708C13.0972 31.1889 13.1266 31.107 13.156 31.0251L14.2825 31.5962C14.2627 31.683 14.221 31.801 14.1574 31.9503C14.0987 32.09 14.0498 32.1983 14.0108 32.2754Z" fill="white"/>
<path d="M20.5026 23.3243C20.1734 23.6667 19.8349 23.9253 19.4872 24.1C19.1391 24.2595 18.7935 24.3465 18.4502 24.3608C18.107 24.3752 17.7737 24.3169 17.4505 24.1858C17.1273 24.0547 16.8257 23.8545 16.5455 23.5852C15.9309 22.9941 15.6594 22.3887 15.7312 21.7689C15.8106 21.1413 16.1757 20.4891 16.8266 19.8122L18.7568 17.8047L18.3366 17.4007C17.8075 16.8919 17.3259 16.6609 16.8916 16.7076C16.4649 16.7465 16.0233 17.0033 15.5669 17.4779C15.1405 17.9214 14.9156 18.3266 14.8923 18.6935C14.8611 19.0529 14.9394 19.3453 15.127 19.5707L14.1395 20.5977C13.9054 20.3428 13.7395 20.0559 13.6416 19.7372C13.5435 19.4032 13.5138 19.0603 13.5527 18.7083C13.5991 18.3486 13.7179 17.9837 13.9092 17.6135C14.0926 17.2358 14.3527 16.8719 14.6894 16.5217C15.3926 15.7903 16.1251 15.379 16.8867 15.2877C17.648 15.1812 18.4216 15.5057 19.2075 16.2614L21.7169 18.6742C22.0437 18.9884 22.3315 19.2652 22.5805 19.5047C22.8292 19.7288 23.0852 19.9375 23.3486 20.1309L22.4845 21.0296C22.2831 20.8808 22.1008 20.7355 21.9377 20.5937C21.7668 20.4444 21.5802 20.2724 21.3779 20.0779C21.5476 20.5555 21.5695 21.0857 21.4435 21.6684C21.3175 22.251 21.0039 22.803 20.5026 23.3243ZM19.7821 22.2048C20.014 21.9636 20.1999 21.708 20.3396 21.4381C20.4791 21.1529 20.5651 20.8687 20.5978 20.5856C20.6226 20.295 20.5865 20.0133 20.4896 19.7403C20.3926 19.4674 20.2196 19.2112 19.9706 18.9718L19.5505 18.5678L17.7885 20.4002C17.4219 20.7815 17.2117 21.1559 17.1578 21.5234C17.0962 21.8834 17.2288 22.2205 17.5556 22.5347C17.8435 22.8116 18.178 22.9386 18.5593 22.9158C18.9481 22.8853 19.3557 22.6483 19.7821 22.2048Z" fill="white"/>
<path d="M32.7076 17.6014C32.563 17.6742 32.411 17.7325 32.2518 17.7763L31.6698 16.6192C31.829 16.5753 31.9809 16.517 32.1255 16.4443C32.2702 16.3715 32.3834 16.2843 32.4652 16.1828C32.5471 16.0812 32.6022 15.9387 32.6308 15.7552C32.6593 15.5716 32.6635 15.3278 32.6435 15.0238C32.6379 14.7245 32.608 14.3408 32.5538 13.8727L25.443 7.84348L26.8606 7.13044L32.4771 12.0988L31.605 4.74395L32.9647 4.06001L33.928 13.1814C33.9971 13.8233 34.037 14.3832 34.0479 14.8611C34.0587 15.339 34.0186 15.7518 33.9277 16.0996C33.8513 16.4522 33.7145 16.7446 33.5171 16.9768C33.3246 17.2186 33.0548 17.4268 32.7076 17.6014Z" fill="white"/>
<path d="M54.2526 0L55.8316 0.156613L57.8998 7.52095L61.1165 0.680785L62.631 0.831005L58.5616 9.05097L56.9503 8.89117L54.2526 0Z" fill="white"/>
<path d="M72.7793 3.81498L74.0941 4.36386L70.7884 12.2831L69.4735 11.7342L72.7793 3.81498ZM73.8733 3.04348C73.6143 2.93537 73.4355 2.7613 73.3368 2.52127C73.2382 2.28124 73.2429 2.03173 73.351 1.77274C73.4591 1.51374 73.6332 1.33492 73.8732 1.23627C74.1133 1.13761 74.3628 1.14234 74.6218 1.25045C74.8808 1.35856 75.0596 1.53263 75.1582 1.77267C75.2569 2.0127 75.2522 2.26221 75.1441 2.5212C75.0359 2.78019 74.8619 2.95902 74.6218 3.05767C74.3818 3.15633 74.1323 3.1516 73.8733 3.04348Z" fill="white"/>
<path d="M81.4858 18.8735C81.0833 18.5303 80.7733 18.1453 80.5556 17.7185C80.3462 17.2987 80.2379 16.8517 80.2309 16.3775C80.2309 15.8952 80.3403 15.3926 80.5591 14.8699C80.7849 14.3389 81.136 13.7942 81.6123 13.2357L81.8224 12.9893C82.2637 12.4719 82.7181 12.0721 83.1858 11.79C83.6686 11.5066 84.1447 11.331 84.614 11.2631C85.0833 11.1952 85.5418 11.2315 85.9894 11.3721C86.4452 11.5196 86.8702 11.7615 87.2645 12.0977C87.7901 12.546 88.1479 13.0497 88.3378 13.6089C88.5359 14.1751 88.5577 14.74 88.4034 15.3035L91.1877 12.0388L92.2718 12.9634L84.9171 21.5871L83.9069 20.7256L84.9576 19.4936C84.4501 19.756 83.8825 19.8393 83.2547 19.7437C82.6339 19.6399 82.0443 19.3498 81.4858 18.8735ZM82.5517 18.1227C82.8474 18.3749 83.1604 18.5567 83.4909 18.6683C83.8213 18.7799 84.1463 18.823 84.4659 18.7976C84.7854 18.7722 85.0996 18.6784 85.4083 18.516C85.717 18.3537 85.9974 18.1247 86.2495 17.829L87.0901 16.8435C87.3142 16.5806 87.4751 16.2922 87.5727 15.9782C87.6702 15.6642 87.7028 15.3515 87.6704 15.0401C87.6451 14.7206 87.5477 14.4105 87.3783 14.1101C87.216 13.8014 86.987 13.521 86.6913 13.2688C86.4285 13.0446 86.1401 12.8838 85.8261 12.7862C85.5121 12.6887 85.1848 12.6649 84.8442 12.7149C84.5188 12.7637 84.1878 12.8857 83.8511 13.0809C83.5226 13.2831 83.2077 13.5608 82.9065 13.9139L82.6964 14.1603C82.3672 14.5463 82.1217 14.9257 81.9598 15.2984C81.8062 15.6782 81.7275 16.0366 81.7237 16.3738C81.728 16.718 81.7997 17.0416 81.9386 17.3445C82.0845 17.6392 82.2889 17.8986 82.5517 18.1227Z" fill="white"/>
<path d="M92.3512 31.8204C92.0817 31.3404 91.9007 30.8416 91.8082 30.3241C91.7157 29.8066 91.7323 29.2959 91.858 28.7921C91.993 28.283 92.2451 27.7949 92.6142 27.3277C92.9832 26.8606 93.4925 26.4447 94.1419 26.08L94.4243 25.9215C95.0455 25.5727 95.6348 25.3656 96.1923 25.3002C96.7592 25.2295 97.2805 25.2649 97.756 25.4065C98.2463 25.5521 98.683 25.7897 99.0661 26.1193C99.4545 26.4583 99.7782 26.8584 100.037 27.3196C100.655 28.4209 100.832 29.4418 100.568 30.3824C100.304 31.323 99.6214 32.1024 98.5201 32.7207L97.7295 33.1646L94.543 27.4889C94.1006 27.7373 93.7684 28.0166 93.5465 28.3269C93.3246 28.6372 93.1829 28.9581 93.1215 29.2897C93.0601 29.6213 93.0636 29.9473 93.1322 30.2679C93.206 30.5978 93.3222 30.9039 93.4807 31.1863C93.7978 31.7511 94.135 32.1312 94.4923 32.3267C94.8549 32.5316 95.238 32.6075 95.6414 32.5543L96.3231 33.7685C95.9231 33.894 95.5312 33.9345 95.1473 33.8901C94.7686 33.8551 94.4059 33.7493 94.0591 33.5726C93.727 33.4001 93.4135 33.1614 93.1186 32.8565C92.8289 32.5611 92.5732 32.2158 92.3512 31.8204ZM98.9473 28.0243C98.7835 27.7326 98.5826 27.474 98.3446 27.2486C98.1161 27.0179 97.8516 26.8445 97.5512 26.7284C97.2655 26.6165 96.954 26.5686 96.6164 26.5848C96.2789 26.601 95.9266 26.7121 95.5595 26.9182L98.0881 31.422C98.4687 31.1959 98.7565 30.9477 98.9513 30.6774C99.1609 30.4112 99.2902 30.1344 99.3392 29.8469C99.3976 29.5541 99.3879 29.2501 99.3099 28.9349C99.2373 28.629 99.1164 28.3255 98.9473 28.0243Z" fill="white"/>
<path d="M97.3555 45.9771C97.2686 45.4335 97.2712 44.9029 97.3634 44.3853C97.4662 43.8661 97.6637 43.3918 97.9558 42.9625C98.2586 42.5315 98.6639 42.1606 99.1717 41.8499C99.6795 41.5392 100.296 41.3259 101.021 41.21L101.34 41.1589C102.023 41.0498 102.643 41.0655 103.201 41.2058C103.759 41.3462 104.238 41.5756 104.639 41.8942C105.05 42.211 105.381 42.601 105.629 43.064C105.889 43.5254 106.062 44.0278 106.149 44.5715C106.236 45.1151 106.228 45.6465 106.125 46.1658C106.033 46.6834 105.841 47.1568 105.549 47.5861C105.267 48.0137 104.883 48.3811 104.397 48.6885C103.91 48.9958 103.326 49.204 102.644 49.313L102.324 49.3641C101.599 49.48 100.947 49.4695 100.368 49.3325C99.7884 49.1956 99.2877 48.9695 98.8656 48.6544C98.4543 48.3375 98.1188 47.9485 97.8592 47.4871C97.6103 47.0241 97.4424 46.5207 97.3555 45.9771ZM98.6346 45.7727C98.6857 46.0924 98.7901 46.4037 98.9478 46.7064C99.1161 47.0074 99.3372 47.2618 99.6109 47.4695C99.8952 47.6754 100.241 47.8224 100.649 47.9102C101.058 48.0088 101.54 48.0138 102.094 47.9252L102.414 47.8741C102.925 47.7923 103.35 47.6425 103.687 47.4247C104.025 47.2175 104.292 46.9726 104.487 46.69C104.683 46.4073 104.808 46.0976 104.864 45.7608C104.919 45.424 104.921 45.0957 104.87 44.7759C104.819 44.4561 104.715 44.1449 104.557 43.8422C104.399 43.5394 104.183 43.2842 103.91 43.0766C103.636 42.8689 103.305 42.7141 102.917 42.6121C102.531 42.5208 102.082 42.5161 101.57 42.5978L101.251 42.649C100.696 42.7376 100.239 42.8871 99.8795 43.0977C99.5213 43.3189 99.2392 43.5717 99.0333 43.8561C98.838 44.1387 98.7072 44.4493 98.6411 44.7878C98.5856 45.1246 98.5834 45.4529 98.6346 45.7727Z" fill="white"/>
</svg>

