<svg width="48" height="48" viewBox="0 0 48 48" fill="none" xmlns="http://www.w3.org/2000/svg">
<rect x="0.5" y="0.5" width="47" height="47" rx="23.5" stroke="white"/>
<path fill-rule="evenodd" clip-rule="evenodd" d="M39.3759 22.1169C39.7639 22.6705 39.9835 23.3245 40.0082 24C40.0184 24.6613 39.8413 25.312 39.4973 25.8769C39.1533 26.4417 38.6564 26.8977 38.0642 27.192C38.0912 27.5435 38.0912 27.8966 38.0642 28.248C38.0642 33.624 31.8002 37.992 24.0722 37.992C16.3442 37.992 10.0802 33.624 10.0802 28.248C10.0532 27.8966 10.0532 27.5435 10.0802 27.192C9.61858 26.98 9.2086 26.67 8.87867 26.2838C8.54873 25.8975 8.30674 25.4441 8.16945 24.955C8.03216 24.4659 8.00286 23.9528 8.08358 23.4512C8.16431 22.9497 8.35312 22.4717 8.63695 22.0503C8.92077 21.629 9.29281 21.2744 9.72728 21.0112C10.1618 20.7479 10.6483 20.5823 11.1531 20.5258C11.658 20.4692 12.1691 20.5232 12.651 20.6838C13.133 20.8444 13.5742 21.1079 13.9442 21.456C16.7097 19.5805 19.9631 18.5544 23.3042 18.504L25.0802 10.176C25.1001 10.0796 25.139 9.98814 25.1946 9.90687C25.2502 9.82559 25.3213 9.75615 25.4039 9.70258C25.4865 9.649 25.5789 9.61235 25.6758 9.59475C25.7726 9.57715 25.872 9.57895 25.9682 9.60005L31.8482 10.776C32.1354 10.2827 32.5889 9.90785 33.1276 9.71879C33.6662 9.52973 34.2545 9.53885 34.7871 9.74449C35.3196 9.95014 35.7613 10.3389 36.0331 10.8409C36.3048 11.3429 36.3887 11.9253 36.2697 12.4836C36.1507 13.0419 35.8367 13.5395 35.3839 13.8871C34.9311 14.2347 34.3692 14.4095 33.7991 14.3802C33.229 14.3508 32.6881 14.1193 32.2733 13.727C31.8586 13.3348 31.5973 12.8076 31.5362 12.24L26.4002 11.16L24.8402 18.648C28.1407 18.7188 31.35 19.7442 34.0802 21.6C34.5679 21.1319 35.1806 20.8149 35.8445 20.6872C36.5083 20.5595 37.1949 20.6265 37.8215 20.8802C38.4481 21.1338 38.9879 21.5634 39.3759 22.1169ZM29.5314 28.7969C30.8561 28.7969 31.9299 27.7231 31.9299 26.3985C31.9299 25.0739 30.8561 24.0001 29.5314 24.0001C28.2068 24.0001 27.133 25.0739 27.133 26.3985C27.133 27.7231 28.2068 28.7969 29.5314 28.7969ZM20.8127 26.3985C20.8127 27.7231 19.7389 28.7969 18.4143 28.7969C17.0896 28.7969 16.0158 27.7231 16.0158 26.3985C16.0158 25.0739 17.0896 24.0001 18.4143 24.0001C19.7389 24.0001 20.8127 25.0739 20.8127 26.3985ZM24.0238 33.5713L24.012 33.5714L24.0002 33.5713V33.5714C22.2896 33.5818 21.0247 33.1986 20.1968 32.8231C19.7797 32.634 19.472 32.4461 19.2731 32.3097C19.1737 32.2416 19.1017 32.1864 19.0569 32.1505C19.0346 32.1326 19.0191 32.1195 19.0104 32.112L19.0034 32.1059C19.0031 32.1057 19.0029 32.1055 19.0027 32.1053C18.7383 31.8646 18.3288 31.8826 18.0866 32.1462C17.8437 32.4105 17.861 32.8217 18.1253 33.0646L18.1264 33.0655L18.1276 33.0666L18.1305 33.0693L18.1384 33.0764L18.1624 33.0974C18.1821 33.1143 18.2091 33.137 18.2435 33.1645C18.3121 33.2196 18.4103 33.2943 18.5379 33.3819C18.7932 33.5569 19.167 33.7836 19.6599 34.0071C20.6434 34.4531 22.0947 34.8836 24.012 34.8714C25.9294 34.8836 27.3807 34.4531 28.3641 34.0071C28.857 33.7836 29.2309 33.5569 29.4861 33.3819C29.6138 33.2943 29.7119 33.2196 29.7806 33.1645C29.8149 33.137 29.8419 33.1143 29.8616 33.0974L29.8856 33.0764L29.8935 33.0693L29.8965 33.0666L29.8977 33.0655L29.8987 33.0646C30.163 32.8217 30.1804 32.4105 29.9375 32.1462C29.6953 31.8826 29.2858 31.8646 29.0214 32.1053L29.0207 32.1059L29.0136 32.112C29.005 32.1195 28.9895 32.1326 28.9671 32.1505C28.9224 32.1864 28.8503 32.2416 28.7509 32.3097C28.5521 32.4461 28.2443 32.634 27.8272 32.8231C26.9994 33.1986 25.7345 33.5818 24.0238 33.5714V33.5713Z" fill="white"/>
</svg>
